<svg xmlns="http://www.w3.org/2000/svg" width="460" height="120" viewBox="0 0 460 120" fill="none">
  <rect x="8" y="8" width="104" height="104" rx="28" fill="url(#bg)" />
  <rect x="28" y="34" width="64" height="52" rx="10" fill="#F8FAFF" />
  <path d="M38 44C38 39.5817 41.5817 36 46 36H74C78.4183 36 82 39.5817 82 44V50H38V44Z" fill="#DCE8FF" />
  <rect x="42" y="56" width="34" height="20" rx="4" stroke="#3972FF" stroke-width="3" fill="#EDF3FF" />
  <path d="M76 70L88 82" stroke="#3972FF" stroke-width="4" stroke-linecap="round" />
  <path d="M144 75V47H161.48C165.987 47 169.433 48.04 171.816 50.12C174.227 52.2 175.432 55.02 175.432 58.58C175.432 62.14 174.227 64.96 171.816 67.04C169.433 69.12 165.987 70.16 161.48 70.16H151.944V75H144ZM151.944 64.28H160.808C164.615 64.28 166.519 62.38 166.519 58.58C166.519 54.7533 164.615 52.84 160.808 52.84H151.944V64.28Z" fill="#0F172A" />
  <path d="M195.702 75.72C191.997 75.72 188.915 74.928 186.457 73.344C184.027 71.7333 182.202 69.5467 180.982 66.784C179.79 64.0213 179.194 60.8973 179.194 57.412V47H187.058V57.364C187.058 60.404 187.71 62.7747 189.014 64.476C190.346 66.1773 192.574 67.028 195.702 67.028C198.802 67.028 201.002 66.1773 202.302 64.476C203.634 62.7747 204.301 60.404 204.301 57.364V47H212.165V57.412C212.165 60.8973 211.554 64.0213 210.33 66.784C209.134 69.5467 207.31 71.7333 204.858 73.344C202.434 74.928 199.382 75.72 195.702 75.72Z" fill="#0F172A" />
  <path d="M229.838 75.72C226.874 75.72 224.266 75.24 222.014 74.28C219.786 73.2933 218.046 71.976 216.794 70.328L220.914 65.2C222.186 66.632 223.646 67.712 225.294 68.44C226.97 69.168 228.842 69.532 230.91 69.532C232.906 69.532 234.446 69.2307 235.53 68.628C236.614 67.9973 237.156 67.096 237.156 65.924C237.156 64.9333 236.784 64.1667 236.04 63.624C235.296 63.0813 234.06 62.5947 232.332 62.164L226.798 60.856C223.938 60.1813 221.79 59.0387 220.354 57.428C218.918 55.8173 218.2 53.704 218.2 51.088C218.2 48.9533 218.758 47.092 219.874 45.504C221.018 43.916 222.618 42.6853 224.674 41.812C226.73 40.9107 229.126 40.46 231.862 40.46C234.558 40.46 236.978 40.896 239.122 41.768C241.266 42.6133 243.006 43.8 244.342 45.328L240.266 50.368C239.126 49.1667 237.826 48.24 236.366 47.588C234.906 46.936 233.33 46.61 231.638 46.61C229.85 46.61 228.45 46.936 227.438 47.588C226.45 48.24 225.954 49.112 225.954 50.204C225.954 51.1947 226.282 52.004 226.938 52.632C227.594 53.2333 228.692 53.7187 230.234 54.088L235.706 55.396C238.794 56.124 241.122 57.2373 242.69 58.736C244.258 60.2347 245.042 62.216 245.042 64.68C245.042 66.936 244.47 68.9 243.326 70.572C242.182 72.244 240.54 73.5347 238.398 74.444C236.258 75.2693 233.404 75.72 229.838 75.72Z" fill="#0F172A" />
  <path d="M249.952 75V47H257.816V75H249.952ZM253.876 43.812C252.562 43.812 251.49 43.4253 250.66 42.652C249.83 41.852 249.414 40.844 249.414 39.628C249.414 38.412 249.83 37.4187 250.66 36.648C251.49 35.848 252.562 35.448 253.876 35.448C255.214 35.448 256.3 35.848 257.132 36.648C257.964 37.4187 258.38 38.412 258.38 39.628C258.38 40.844 257.964 41.852 257.132 42.652C256.3 43.4253 255.214 43.812 253.876 43.812Z" fill="#0F172A" />
  <path d="M278.605 75.72C274.661 75.72 271.47 74.4387 269.033 71.876C266.597 69.2867 265.378 65.8133 265.378 61.456C265.378 57.0987 266.597 53.64 269.033 51.08C271.47 48.5173 274.661 47.236 278.605 47.236C280.578 47.236 282.413 47.5787 284.109 48.264C285.826 48.9493 287.21 49.904 288.261 51.128L284.141 56.476C283.413 55.692 282.578 55.0827 281.633 54.648C280.714 54.184 279.733 53.952 278.689 53.952C276.522 53.952 274.821 54.632 273.585 55.992C272.373 57.352 271.766 59.1747 271.766 61.46C271.766 63.7453 272.373 65.568 273.585 66.928C274.821 68.288 276.522 68.968 278.689 68.968C279.792 68.968 280.821 68.7347 281.777 68.268C282.761 67.8013 283.61 67.136 284.325 66.272L288.445 71.484C287.266 72.8387 285.834 73.8653 284.149 74.564C282.49 75.3613 280.642 75.72 278.605 75.72Z" fill="#0F172A" />
  <path d="M304.147 75.72C300.355 75.72 297.326 74.4253 295.059 71.836C292.819 69.2187 291.699 65.7587 291.699 61.456C291.699 57.0987 292.819 53.64 295.059 51.08C297.326 48.5173 300.355 47.236 304.147 47.236C307.939 47.236 310.952 48.5173 313.187 51.08C315.454 53.64 316.587 57.0987 316.587 61.456C316.587 65.7587 315.454 69.2187 313.187 71.836C310.952 74.4253 307.939 75.72 304.147 75.72ZM304.147 68.968C306.191 68.968 307.782 68.272 308.923 66.88C310.091 65.46 310.675 63.652 310.675 61.456C310.675 59.2053 310.091 57.412 308.923 56.076C307.782 54.712 306.191 54.03 304.147 54.03C302.102 54.03 300.496 54.712 299.323 56.076C298.181 57.412 297.611 59.2053 297.611 61.456C297.611 63.652 298.181 65.46 299.323 66.88C300.496 68.272 302.102 68.968 304.147 68.968Z" fill="#0F172A" />
  <path d="M331.236 75.72C328.068 75.72 325.489 74.8173 323.5 73.012C321.532 71.2067 320.548 68.5987 320.548 65.188V53.64H315.72V47.916H320.548V40.924H328.412V47.916H336.676V53.64H328.412V64.708C328.412 66.012 328.745 67.0107 329.412 67.704C330.08 68.3973 331.026 68.744 332.252 68.744C332.801 68.744 333.33 68.684 333.84 68.564C334.375 68.4173 334.826 68.2307 335.196 68.004L336.86 73.52C336.141 73.9493 335.284 74.3053 334.287 74.588C333.314 75.0107 332.296 75.22 331.236 75.72Z" fill="#0F172A" />
  <defs>
    <linearGradient id="bg" x1="14" y1="14" x2="102" y2="110" gradientUnits="userSpaceOnUse">
      <stop stop-color="#0E4FD6" />
      <stop offset="1" stop-color="#2F88FF" />
    </linearGradient>
  </defs>
</svg>
